<svg  viewBox="0 0 197 197" fill="none" xmlns="http://www.w3.org/2000/svg">
<path fill-rule="evenodd" clip-rule="evenodd" d="M98.5 197C152.9 197 197 152.9 197 98.5C197 44.1 152.9 0 98.5 0C44.1 0 0 44.1 0 98.5C0 152.9 44.1 197 98.5 197ZM99.5 183C146.168 183 184 145.168 184 98.5C184 51.8319 146.168 14 99.5 14C52.8319 14 15 51.8319 15 98.5C15 145.168 52.8319 183 99.5 183Z" fill="#D60D0D"/>
<circle cx="99" cy="98.5" r="70.5" fill="#A1D2FC"/>
<circle cx="99" cy="98.5" r="17.5" fill="#1268FB"/>
<path fill-rule="evenodd" clip-rule="evenodd" d="M99 141C122.472 141 141.5 121.972 141.5 98.5C141.5 75.0279 122.472 56 99 56C75.5279 56 56.5 75.0279 56.5 98.5C56.5 121.972 75.5279 141 99 141ZM99 127C114.74 127 127.5 114.24 127.5 98.5C127.5 82.7599 114.74 70 99 70C83.2599 70 70.5 82.7599 70.5 98.5C70.5 114.24 83.2599 127 99 127Z" fill="#4DABFD"/>
<path fill-rule="evenodd" clip-rule="evenodd" d="M99 169C137.936 169 169.5 137.436 169.5 98.5C169.5 59.5639 137.936 28 99 28C60.0639 28 28.5 59.5639 28.5 98.5C28.5 137.436 60.0639 169 99 169ZM99 155C130.204 155 155.5 129.704 155.5 98.5C155.5 67.2959 130.204 42 99 42C67.7959 42 42.5 67.2959 42.5 98.5C42.5 129.704 67.7959 155 99 155Z" fill="#1268FB"/>
<circle cx="121.5" cy="69" r="15" fill="white"/>
<rect x="35.7139" y="24.8145" width="193" height="14" transform="rotate(45 35.7139 24.8145)" fill="#D60D0D"/>
</svg>
